<svg xmlns="http://www.w3.org/2000/svg" viewBox="0 0 800 500" width="800" height="500">
  <defs>
    <linearGradient id="g" x1="0" y1="0" x2="1" y2="1">
      <stop offset="0" stop-color="#64748b"/>
      <stop offset="1" stop-color="#334155"/>
    </linearGradient>
  </defs>
  <rect width="800" height="500" fill="url(#g)"/>
  <circle cx="120" cy="90" r="220" fill="#ffffff" opacity="0.06"/>
  <circle cx="700" cy="430" r="180" fill="#000000" opacity="0.08"/>
  <g transform="translate(268,120) scale(11)" fill="#ffffff" opacity="0.92">
    <path d="M18.92 6.01C18.72 5.42 18.16 5 17.5 5h-11c-.66 0-1.21.42-1.42 1.01L3 12v8c0 .55.45 1 1 1h1c.55 0 1-.45 1-1v-1h12v1c0 .55.45 1 1 1h1c.55 0 1-.45 1-1v-8l-2.08-5.99zM6.5 16c-.83 0-1.5-.67-1.5-1.5S5.67 13 6.5 13s1.5.67 1.5 1.5S7.33 16 6.5 16zm11 0c-.83 0-1.5-.67-1.5-1.5s.67-1.5 1.5-1.5 1.5.67 1.5 1.5-.67 1.5-1.5 1.5zM5 11l1.5-4.5h11L19 11H5z"/>
  </g>
  <text x="400" y="450" font-family="Segoe UI, Arial, sans-serif" font-size="38" font-weight="700" fill="#ffffff" text-anchor="middle">Toyota Innova Crysta</text>
</svg>
